<svg width="21" height="26" viewBox="0 0 21 26" fill="none" xmlns="http://www.w3.org/2000/svg">
<g id="Bell">
<path id="Union" d="M1.66602 16.3655H2.54102H1.66602ZM4.85441 20.0968L4.97459 19.2301H4.97459L4.85441 20.0968ZM16.7385 20.0968L16.8587 20.9636L16.7385 20.0968ZM4.56883 8.43421C4.56883 4.99544 7.3565 2.20776 10.7953 2.20776V0.457764C6.39 0.457764 2.81883 4.02894 2.81883 8.43421H4.56883ZM4.56883 10.877V8.43421H2.81883V10.877H4.56883ZM2.54102 16.3655C2.54102 15.8039 2.69459 15.2809 2.96153 14.8331L1.45839 13.937C1.03437 14.6482 0.791016 15.4798 0.791016 16.3655H2.54102ZM4.97459 19.2301C3.57501 19.0361 2.54102 17.8193 2.54102 16.3655H0.791016C0.791016 18.6518 2.42914 20.6439 4.73423 20.9636L4.97459 19.2301ZM10.7964 19.7335C9.0558 19.7335 6.80695 19.4842 4.97459 19.2301L4.73423 20.9636C6.5808 21.2196 8.92895 21.4835 10.7964 21.4835V19.7335ZM16.6183 19.2301C14.7859 19.4842 12.5371 19.7335 10.7964 19.7335V21.4835C12.6639 21.4835 15.0121 21.2196 16.8587 20.9636L16.6183 19.2301ZM19.0519 16.3655C19.0519 17.8193 18.0179 19.0361 16.6183 19.2301L16.8587 20.9636C19.1637 20.6439 20.8019 18.6518 20.8019 16.3655H19.0519ZM18.631 14.8324C18.8981 15.2803 19.0519 15.8036 19.0519 16.3655H20.8019C20.8019 15.4793 20.5583 14.6474 20.1339 13.9359L18.631 14.8324ZM17.0217 8.43422V10.8741H18.7717V8.43422H17.0217ZM10.7953 2.20776C14.234 2.20776 17.0217 4.99544 17.0217 8.43422H18.7717C18.7717 4.02894 15.2005 0.457764 10.7953 0.457764V2.20776ZM20.1339 13.9359C19.7733 13.3314 19.4458 12.8471 19.1757 12.3063C18.9171 11.7884 18.7717 11.3264 18.7717 10.8741H17.0217C17.0217 11.7061 17.2903 12.4477 17.61 13.088C17.9183 13.7054 18.3337 14.3341 18.631 14.8324L20.1339 13.9359ZM2.81883 10.877C2.81883 11.329 2.67365 11.7907 2.41539 12.3083C2.14566 12.8488 1.81855 13.3329 1.45839 13.937L2.96153 14.8331C3.25852 14.335 3.67334 13.7067 3.98126 13.0896C4.30065 12.4496 4.56883 11.7084 4.56883 10.877H2.81883Z" fill="#2B3F6C"/>
<path id="Ellipse 33" d="M13.332 23.3059C12.7868 24.126 11.8544 24.6664 10.7958 24.6664C9.7372 24.6664 8.80483 24.126 8.25958 23.3059" stroke="#2B3F6C" stroke-width="1.75" stroke-linecap="round"/>
</g>
</svg>
