<svg width="24" height="26" viewBox="0 0 24 26" fill="none" xmlns="http://www.w3.org/2000/svg">
<g id="Iconex/Light/Call">
<g id="Call">
<path id="Union" d="M20.6515 21.9029C18.5344 24.0201 13.1124 22.0307 8.54119 17.4595C3.97001 12.8884 1.98065 7.46639 4.09782 5.3492L5.49182 3.9552C6.45417 2.99285 8.0399 3.01829 9.03363 4.01202L11.1928 6.1712C12.1865 7.16494 12.212 8.75066 11.2496 9.71302L10.9502 10.0124C10.4306 10.532 10.3798 11.3702 10.8626 11.9553C11.3283 12.5196 11.8303 13.0817 12.3747 13.6261C12.919 14.1704 13.4811 14.6725 14.0455 15.1381C14.6305 15.6209 15.4687 15.5701 15.9883 15.0505L16.2877 14.7511C17.2501 13.7887 18.8358 13.8142 19.8295 14.8079L21.9887 16.9671C22.9824 17.9608 23.0079 19.5466 22.0455 20.5089L20.6515 21.9029Z" stroke="#17244A" stroke-width="1.625"/>
</g>
</g>
</svg>
