<svg width="25" height="25" viewBox="0 0 25 25" fill="none" xmlns="http://www.w3.org/2000/svg">
<g id="Iconex/Filled/Case">
<g id="Case">
<path id="Subtract" fill-rule="evenodd" clip-rule="evenodd" d="M4.32227 6.94141C3.2177 6.94141 2.32227 7.83684 2.32227 8.94141V10.5962C2.32227 11.4794 2.9016 12.258 3.74757 12.5118L11.1729 14.7394C11.9226 14.9643 12.7219 14.9643 13.4717 14.7394L20.897 12.5118C21.7429 12.258 22.3223 11.4794 22.3223 10.5962V8.94141C22.3223 7.83684 21.4268 6.94141 20.3223 6.94141H4.32227ZM13.0723 10.3701C13.0723 9.9559 12.7365 9.62012 12.3223 9.62012C11.9081 9.62012 11.5723 9.9559 11.5723 10.3701V12.0844C11.5723 12.4986 11.9081 12.8344 12.3223 12.8344C12.7365 12.8344 13.0723 12.4986 13.0723 12.0844V10.3701Z" fill="#2B3F6C"/>
<path id="Subtract_2" fill-rule="evenodd" clip-rule="evenodd" d="M2.40625 13.525V17.5123C2.40625 20.1357 4.5329 22.2623 7.15625 22.2623H17.4896C20.1129 22.2623 22.2396 20.1357 22.2396 17.5123V13.5248C21.9629 13.7059 21.6572 13.8498 21.3285 13.9484L13.9032 16.176C12.8723 16.4852 11.7733 16.4852 10.7423 16.176L3.31704 13.9484C2.98846 13.8498 2.68287 13.706 2.40625 13.525ZM2.46786 11.3442L12.3229 13.0125L22.1776 11.3443C21.9551 11.8955 21.4921 12.3332 20.8974 12.5116L13.4721 14.7392C12.7224 14.9642 11.9231 14.9642 11.1734 14.7392L3.74806 12.5116C3.15334 12.3332 2.69039 11.8954 2.46786 11.3442ZM12.3223 14.5124L12.3228 14.5125L12.3228 14.5125L12.3223 14.5124Z" fill="#2B3F6C"/>
<path id="Rectangle 4" d="M15.6549 6.94125V5.5127C15.6549 4.40813 14.7595 3.5127 13.6549 3.5127H10.9883C9.88371 3.5127 8.98828 4.40813 8.98828 5.5127L8.98828 6.94125" stroke="#2B3F6C" stroke-width="1.5"/>
</g>
</g>
</svg>
