<svg width="22" height="23" viewBox="0 0 22 23" fill="none" xmlns="http://www.w3.org/2000/svg">
<g id="Home">
<path id="Rectangle 74" d="M0.8125 11.0337C0.8125 9.70696 1.42004 8.45328 2.46136 7.63118L8.42207 2.92536C9.99703 1.68197 12.2195 1.68197 13.7944 2.92537L19.7551 7.63118C20.7965 8.45328 21.404 9.70696 21.404 11.0337V18.1449C21.404 20.5391 19.4631 22.48 17.069 22.48H15.4433C14.8448 22.48 14.3595 21.9947 14.3595 21.3962V18.1449C14.3595 16.9478 13.3891 15.9774 12.192 15.9774H10.0245C8.8274 15.9774 7.85696 16.9478 7.85696 18.1449V21.3962C7.85696 21.9947 7.37175 22.48 6.7732 22.48H5.14755C2.75337 22.48 0.8125 20.5391 0.8125 18.1449L0.8125 11.0337Z" stroke="#17244A"/>
</g>
</svg>
