<svg width="23" height="23" viewBox="0 0 23 23" fill="none" xmlns="http://www.w3.org/2000/svg">
<g id="Message circle">
<path id="Union" d="M1.66826 19.4658L2.37541 19.7157H2.37541L1.66826 19.4658ZM3.21617 21.0137L3.46605 21.7209H3.46605L3.21617 21.0137ZM5.76701 20.1124L6.01689 20.8195L5.76701 20.1124ZM6.64177 20.1959L7.00546 19.54L6.64177 20.1959ZM2.54019 15.9639L1.87315 16.3068L2.54019 15.9639ZM2.60712 16.8088L1.89997 16.559L2.60712 16.8088ZM2.17773 11.3491C2.17773 6.18033 6.36783 1.99023 11.5366 1.99023V0.490234C5.53941 0.490234 0.677734 5.3519 0.677734 11.3491H2.17773ZM3.20724 15.6211C2.54938 14.3412 2.17773 12.8896 2.17773 11.3491H0.677734C0.677734 13.1336 1.1088 14.8197 1.87315 16.3068L3.20724 15.6211ZM2.37541 19.7157L3.31427 17.0587L1.89997 16.559L0.961111 19.2159L2.37541 19.7157ZM2.96629 20.3066C2.59927 20.4363 2.24572 20.0827 2.37541 19.7157L0.961111 19.2159C0.411305 20.7719 1.9101 22.2707 3.46605 21.7209L2.96629 20.3066ZM5.51713 19.4052L2.96629 20.3066L3.46605 21.7209L6.01689 20.8195L5.51713 19.4052ZM11.5366 20.7079C9.89129 20.7079 8.34727 20.284 7.00546 19.54L6.27809 20.8519C7.83678 21.7161 9.63037 22.2079 11.5366 22.2079V20.7079ZM20.8954 11.3491C20.8954 16.5178 16.7053 20.7079 11.5366 20.7079V22.2079C17.5338 22.2079 22.3954 17.3463 22.3954 11.3491H20.8954ZM11.5366 1.99023C16.7053 1.99023 20.8954 6.18033 20.8954 11.3491H22.3954C22.3954 5.35191 17.5338 0.490234 11.5366 0.490234V1.99023ZM6.01689 20.8195C6.08549 20.7953 6.18079 20.7979 6.27809 20.8519L7.00546 19.54C6.56696 19.2969 6.02617 19.2253 5.51713 19.4052L6.01689 20.8195ZM1.87315 16.3068C1.92194 16.4017 1.92329 16.493 1.89997 16.559L3.31427 17.0587C3.48717 16.5694 3.42769 16.05 3.20724 15.6211L1.87315 16.3068Z" fill="#2B3F6C"/>
<g id="Dots">
<circle id="Ellipse 37" cx="6.53509" cy="11.3993" r="1.26361" fill="#2B3F6C"/>
<circle id="Ellipse 38" cx="11.5898" cy="11.3993" r="1.26361" fill="#2B3F6C"/>
<circle id="Ellipse 39" cx="16.6425" cy="11.3993" r="1.26361" fill="#2B3F6C"/>
</g>
</g>
</svg>
