<svg width="130" height="30" viewBox="0 0 130 30" fill="none" xmlns="http://www.w3.org/2000/svg">
<g id="NEXUS">
<path id="Vector" d="M118.192 29.1517C114.752 29.1517 112.003 28.3646 109.947 26.7906C107.903 25.2165 106.837 22.8999 106.748 19.8406H112.556C112.657 21.2624 113.216 22.335 114.231 23.0586C115.259 23.7694 116.554 24.1249 118.115 24.1249C119.639 24.1249 120.857 23.8012 121.771 23.1538C122.698 22.5064 123.161 21.6622 123.161 20.6213C123.161 19.6693 122.742 18.9394 121.905 18.4316C121.067 17.9112 119.874 17.4669 118.325 17.0988L115.221 16.3371C112.835 15.7659 110.95 14.8583 109.566 13.6143C108.195 12.3576 107.51 10.682 107.51 8.58746C107.51 6.87377 107.973 5.37589 108.9 4.0938C109.826 2.79902 111.096 1.79619 112.708 1.08533C114.333 0.361778 116.18 0 118.249 0C120.356 0 122.197 0.361778 123.771 1.08533C125.345 1.80889 126.57 2.81171 127.446 4.0938C128.334 5.37589 128.791 6.85473 128.816 8.53033H123.028C122.926 7.42596 122.457 6.56277 121.619 5.94077C120.781 5.31877 119.645 5.00776 118.211 5.00776C116.751 5.00776 115.627 5.31242 114.84 5.92173C114.053 6.51834 113.66 7.27998 113.66 8.20664C113.66 9.20946 114.098 9.9711 114.974 10.4916C115.85 10.9993 116.903 11.3992 118.135 11.6911L120.667 12.3195C122.317 12.6876 123.783 13.2271 125.065 13.938C126.348 14.6361 127.357 15.5374 128.093 16.6418C128.829 17.7334 129.197 19.0663 129.197 20.6404C129.197 23.2426 128.226 25.3117 126.284 26.8477C124.342 28.3837 121.644 29.1517 118.192 29.1517Z" fill="white"/>
<path id="Vector_2" d="M97.2393 0.380859H103.218V18.7744C103.218 20.8435 102.729 22.6587 101.752 24.2201C100.775 25.7688 99.4037 26.9747 97.6392 27.8379C95.8747 28.7011 93.8183 29.1327 91.4699 29.1327C89.1089 29.1327 87.0461 28.7011 85.2816 27.8379C83.5299 26.9747 82.1653 25.7688 81.1878 24.2201C80.2104 22.6587 79.7217 20.8435 79.7217 18.7744V0.380859H85.7005V18.2793C85.7005 19.9042 86.2273 21.2434 87.2809 22.297C88.3345 23.3379 89.7309 23.8583 91.4699 23.8583C93.209 23.8583 94.6053 23.3379 95.6589 22.297C96.7125 21.2434 97.2393 19.9042 97.2393 18.2793V0.380859Z" fill="white"/>
<path id="Vector_3" d="M57.9118 0.380859L63.6241 10.0536H63.8526L69.5839 0.380859H76.3625L67.7179 14.5854L76.572 28.7518H69.6601L63.8526 19.079H63.6241L57.7976 28.7518H50.9619L59.8159 14.5854L51.1142 0.380859H57.9118Z" fill="white"/>
<path id="Vector_4" d="M28.9053 28.7518V0.380859H48.0224V5.3315H34.8841V11.9958H47.0132V16.8513H34.8841V23.8012H48.0604V28.7518H28.9053Z" fill="white"/>
<path id="Vector_5" d="M0.716413 0.380859V28.7518H5.91459L18.2341 10.9105H18.4626V28.7518H24.4414V0.380859H19.1861L6.9428 18.2222H6.69526V0.380859H0.716413Z" fill="white"/>
</g>
</svg>
