<svg width="20" height="20" viewBox="0 0 20 20" fill="none" xmlns="http://www.w3.org/2000/svg">
<path id="Subtract" fill-rule="evenodd" clip-rule="evenodd" d="M20 10C20 15.1122 16.1633 19.3283 11.2117 19.9278L11.2116 19.9276C11.2118 19.9276 11.212 19.9276 11.2122 19.9276L11.2122 13.0553H13.9161L14.4761 9.99979H11.2078V8.91924C11.2078 7.30313 11.84 6.68313 13.48 6.68313C13.9878 6.68313 14.4 6.69535 14.6361 6.71924V3.9509C14.1878 3.82701 13.0961 3.70312 12.4639 3.70312C9.12391 3.70312 7.58391 5.27924 7.58391 8.68313V9.99979H5.52002V13.0559H7.58391V19.7059H7.58446L7.58444 19.7061C3.22833 18.6256 0 14.69 0 10C0 4.47722 4.47722 0 10 0C15.5228 0 20 4.47722 20 10Z" fill="#0866FF"/>
</svg>
